<?xml version="1.0" encoding="utf-8"?>
<!-- Generator: Adobe Illustrator 26.0.1, SVG Export Plug-In . SVG Version: 6.00 Build 0)  -->
<svg version="1.1" id="Layer_1" xmlns="http://www.w3.org/2000/svg" xmlns:xlink="http://www.w3.org/1999/xlink" x="0px" y="0px"
	 viewBox="0 0 1022.5 360" style="enable-background:new 0 0 1022.5 360;" xml:space="preserve">
<path d="M102.3,271.4c0-60.4,0-120,0-180.5c273.1,0,545.8,0,819.6,0c0,59.7,0,119.6,0,180.5C649.2,271.4,376.6,271.4,102.3,271.4z
	 M111.4,262.2c268.4,0,535.3,0,802.1,0c0-54.7,0-108.1,0-162c-267.8,0-534.6,0-802.1,0C111.4,154.6,111.4,208,111.4,262.2z"/>
<path d="M248.7,223.8c-29,0-57.2,0-86.6,0c0-28.1,0-56,0-85.1c28.3,0,56.9,0,86.6,0C248.7,167,248.7,194.9,248.7,223.8z
	 M203.6,203.2c1,0,2,0,3,0c0-15.8,0-31.6,0-47.4c-1,0.1-2,0.1-3,0.2C203.6,171.8,203.6,187.5,203.6,203.2z"/>
<path d="M329.5,143.9v74.9h-18.3V188h-28.4v30.9h-18.3v-74.9h18.3v29.4h28.4v-29.4H329.5z"/>
<path d="M364.2,143.9v74.9H346v-74.9H364.2z"/>
<path d="M431.5,167.6c-1.4-2.5-3.3-4.4-5.8-5.7c-2.5-1.3-5.5-2-8.9-2c-5.9,0-10.6,1.9-14.2,5.8c-3.6,3.9-5.3,9.1-5.3,15.5
	c0,6.9,1.9,12.3,5.6,16.2c3.7,3.9,8.9,5.8,15.4,5.8c4.5,0,8.3-1.1,11.4-3.4c3.1-2.3,5.4-5.6,6.8-9.8h-23.2v-13.5H453v17
	c-1.4,4.6-3.6,8.8-6.9,12.7c-3.2,3.9-7.4,7.1-12.3,9.5c-5,2.4-10.6,3.6-16.9,3.6c-7.4,0-14-1.6-19.8-4.9
	c-5.8-3.2-10.3-7.7-13.6-13.5c-3.2-5.8-4.9-12.3-4.9-19.8c0-7.4,1.6-14,4.9-19.8c3.2-5.8,7.7-10.3,13.5-13.6
	c5.8-3.2,12.3-4.9,19.8-4.9c9,0,16.5,2.2,22.7,6.5c6.2,4.3,10.2,10.4,12.2,18H431.5z"/>
<path d="M529.1,143.9v74.9h-18.3V188h-28.4v30.9h-18.3v-74.9h18.3v29.4h28.4v-29.4H529.1z"/>
<path d="M572.9,204.8h23.9v14.1h-42.2v-74.9h18.3V204.8z"/>
<path d="M627.1,143.9v74.9h-18.3v-74.9H627.1z"/>
<path d="M695.5,167.6c-1.4-2.5-3.3-4.4-5.8-5.7c-2.5-1.3-5.5-2-8.9-2c-5.9,0-10.6,1.9-14.2,5.8c-3.6,3.9-5.3,9.1-5.3,15.5
	c0,6.9,1.9,12.3,5.6,16.2c3.7,3.9,8.9,5.8,15.4,5.8c4.5,0,8.3-1.1,11.4-3.4c3.1-2.3,5.4-5.6,6.8-9.8h-23.2v-13.5H717v17
	c-1.4,4.6-3.6,8.8-6.9,12.7c-3.2,3.9-7.3,7.1-12.3,9.5c-5,2.4-10.6,3.6-16.9,3.6c-7.4,0-14-1.6-19.8-4.9
	c-5.8-3.2-10.3-7.7-13.6-13.5c-3.2-5.8-4.9-12.3-4.9-19.8c0-7.4,1.6-14,4.9-19.8c3.2-5.8,7.7-10.3,13.5-13.6
	c5.8-3.2,12.3-4.9,19.8-4.9c9,0,16.5,2.2,22.7,6.5c6.2,4.3,10.2,10.4,12.2,18H695.5z"/>
<path d="M792.8,143.9v74.9h-18.3V188h-28.4v30.9h-18.3v-74.9h18.3v29.4h28.4v-29.4H792.8z"/>
<path d="M869.9,143.9v14.6h-19.9v60.3h-18.3v-60.3H812v-14.6H869.9z"/>
</svg>
